<svg xmlns="http://www.w3.org/2000/svg" viewBox="0 0 50 48" width="50" height="48">
	<style>
		tspan { white-space:pre }
		.shp0 { fill: #777777 } 
	</style>
	<path id="-e-culture__star" class="shp0" d="M39.25 47.08C38.84 47.08 38.43 46.97 38.07 46.73L25.4 38.5L12.72 46.73C11.96 47.22 10.98 47.2 10.25 46.66C9.53 46.12 9.21 45.19 9.45 44.32L13.42 30.22L1.57 20.18C0.9 19.61 0.64 18.69 0.91 17.85C1.18 17.02 1.94 16.43 2.82 16.36L17.03 15.34L23.42 1.32C23.78 0.55 24.55 0.05 25.4 0.05C26.24 0.05 27.01 0.55 27.37 1.32L33.76 15.34L47.97 16.36C48.85 16.43 49.61 17.02 49.88 17.85C50.15 18.69 49.89 19.61 49.22 20.18L37.37 30.22L41.34 44.32C41.58 45.19 41.27 46.12 40.54 46.66C40.16 46.94 39.71 47.08 39.25 47.08ZM25.4 33.75C25.81 33.75 26.22 33.86 26.57 34.1L35.61 39.96L32.82 30.05C32.59 29.24 32.86 28.36 33.5 27.81L42.36 20.31L32.17 19.57C31.38 19.52 30.68 19.03 30.35 18.31L25.4 7.44L20.44 18.31C20.11 19.03 19.41 19.52 18.62 19.57L8.43 20.31L17.29 27.81C17.93 28.36 18.2 29.24 17.97 30.05L15.18 39.96L24.22 34.1C24.57 33.86 24.98 33.75 25.4 33.75Z" />
</svg>