<svg xmlns="http://www.w3.org/2000/svg" viewBox="0 0 47 47" width="47" height="47">
	<style>
		tspan { white-space:pre }
		.shp0 { fill: #777777 } 
	</style>
	<path id="-e-culture__music" class="shp0" d="M46.63 2.34C46.64 1.72 46.36 1.12 45.88 0.73C45.4 0.34 44.76 0.19 44.15 0.32L17.2 6.08C16.26 6.28 15.58 7.11 15.57 8.07L15.39 32.22C13.89 31.33 12.07 30.8 10.1 30.78L10.02 30.78C4.88 30.78 0.68 34.35 0.65 38.73C0.61 43.15 4.8 46.79 9.98 46.83L10.07 46.83C15.2 46.83 19.4 43.26 19.44 38.88L19.44 38.88L19.44 38.88L19.6 17.82L42.45 12.93L42.35 26.46C40.85 25.57 39.03 25.03 37.06 25.02L36.97 25.02C31.84 25.02 27.64 28.58 27.6 32.97C27.57 37.39 31.76 41.02 36.94 41.06L37.02 41.06C41.76 41.06 45.69 38.03 46.31 34.12C46.36 33.94 46.39 33.76 46.39 33.57L46.63 2.34ZM10.07 42.72L10.01 42.72C7.14 42.7 4.73 40.89 4.75 38.76C4.76 36.62 7.13 34.88 10.02 34.88L10.07 34.88C12.94 34.91 15.35 36.72 15.34 38.85C15.32 40.98 12.96 42.72 10.07 42.72ZM19.62 14.67L19.66 9.75L42.51 4.86L42.48 9.78L19.62 14.67ZM37.02 36.96L36.97 36.96C34.1 36.94 31.69 35.12 31.7 33C31.72 30.86 34.08 29.12 36.97 29.12L37.03 29.12C39.9 29.14 42.31 30.96 42.3 33.08C42.28 35.22 39.92 36.96 37.02 36.96Z" />
</svg>