<svg xmlns="http://www.w3.org/2000/svg" viewBox="0 0 35 47" width="35" height="47">
	<style>
		tspan { white-space:pre }
		.shp0 { fill: #777777 } 
	</style>
	<path id="-e-culture__quality" class="shp0" d="M31.13,0.24c-1.98,0 -3.59,1.61 -3.59,3.59v38.73c0,1.98 1.61,3.59 3.59,3.59c1.98,0 3.59,-1.6 3.59,-3.59v-38.73c0,-1.98 -1.61,-3.59 -3.59,-3.59zM17.68,13.02c-1.98,0 -3.59,1.61 -3.59,3.59v25.95c0,1.98 1.61,3.59 3.59,3.59c1.98,0 3.59,-1.6 3.59,-3.59v-25.95c0,-1.98 -1.61,-3.59 -3.59,-3.59zM4.23,25.8c-1.98,0 -3.59,1.61 -3.59,3.59v13.17c0,1.98 1.61,3.59 3.59,3.59c1.98,0 3.59,-1.6 3.59,-3.59v-13.17c0,-1.98 -1.61,-3.59 -3.59,-3.59z" />
</svg>