<svg xmlns="http://www.w3.org/2000/svg" viewBox="0 0 25 18" width="25" height="18">
	<style>
		tspan { white-space:pre }
		.shp0 { fill: #ebebeb } 
	</style>
	<path id="-e-footer__twitter" class="shp0" d="M1.31,13.95c3.59,4.21 9.07,3.89 9.07,3.89c10.95,0 11.21,-8.36 11.21,-8.36c0,-0.26 0.29,-0.33 0.29,-0.33c0.43,0 2.39,-1.27 2.39,-1.27c0.43,-0.81 -0.5,-0.36 -0.5,-0.36c-0.36,0.22 -1.13,0.37 -1.13,0.37c-0.79,0.14 -0.24,-0.55 -0.24,-0.55c0.91,-0.43 1.79,-1.96 1.79,-1.96c0.05,-0.5 -0.29,-0.29 -0.29,-0.29c-0.31,0.04 -1.54,0.82 -1.54,0.82c-0.81,0.79 -1.06,0.03 -1.06,0.03c0,-3.2 -4.38,-3.59 -4.38,-3.59c-0.31,-0.05 -0.38,-0.38 -0.02,-0.41c0.36,-0.02 1.42,-0.97 1.42,-0.97c0.31,-0.67 -0.72,-0.26 -0.72,-0.26c-0.29,0.21 -0.53,-0.14 -0.53,-0.14c-0.24,-0.24 -0.96,0.05 -0.96,0.05c-0.17,0.26 -1,0.1 -1,0.1c-2.61,0.45 -4.22,7.32 -4.22,7.32c-0.05,0.53 -0.45,-0.02 -0.45,-0.02c-2.22,-2.7 -3.1,-2.07 -3.1,-2.07c-0.31,0.31 0.24,0.69 0.24,0.69c0.22,0.24 -0.02,0.29 -0.02,0.29c-0.77,-0.33 -0.96,0.13 -0.96,0.13c-0.1,0.1 0.41,0.52 0.7,0.73c0.29,0.22 -0.02,0.33 -0.02,0.33c-0.45,-0.12 -1.67,-0.45 -1.67,-0.45c-0.48,0.05 0.12,0.83 0.12,0.83c0.38,0.24 -0.4,1.01 -0.4,1.01c-0.69,-0.12 -0.67,0.41 -0.67,0.41c-0.38,0.93 5.01,2.51 5.01,2.51c0.55,0.29 0.14,0.88 0.14,0.88c-1.65,2.16 -4.16,1.49 -4.16,1.49c-1.31,0 -4.48,-1.46 -4.48,-1.46c-0.55,-0.12 0.14,0.62 0.14,0.62z" />
</svg>