<svg xmlns="http://www.w3.org/2000/svg" viewBox="0 0 26 21" width="26" height="21">
	<style>
		tspan { white-space:pre }
		.shp0 { fill: #ebebeb } 
	</style>
	<path id="-e-footer__news" class="shp0" d="M2.74,0.23h19.97c1.38,0 2.5,1.12 2.5,2.5v14.98c0,1.38 -1.12,2.5 -2.5,2.5h-19.97c-1.38,0 -2.5,-1.12 -2.5,-2.5v-14.98c0,-1.38 1.12,-2.5 2.5,-2.5zM14.39,10.22c0,0.46 0.37,0.83 0.83,0.83h7.49c0.46,0 0.83,-0.37 0.83,-0.83c0,-0.46 -0.37,-0.83 -0.83,-0.83h-7.49c-0.46,0 -0.83,0.37 -0.83,0.83zM14.39,6.89c0,0.46 0.37,0.83 0.83,0.83h7.49c0.46,0 0.83,-0.37 0.83,-0.83c0,-0.46 -0.37,-0.83 -0.83,-0.83h-7.49c-0.46,0 -0.83,0.37 -0.83,0.83zM14.39,13.55c0,0.46 0.37,0.83 0.83,0.83h7.49c0.46,0 0.83,-0.37 0.83,-0.83c0,-0.46 -0.37,-0.83 -0.83,-0.83h-7.49c-0.46,0 -0.83,0.37 -0.83,0.83zM1.91,6.06v8.32c0,0.46 0.37,0.83 0.83,0.83h8.32c0.46,0 0.83,-0.37 0.83,-0.83v-8.32c0,-0.46 -0.37,-0.83 -0.83,-0.83h-8.32c-0.46,0 -0.83,0.37 -0.83,0.83z" />
</svg>