<svg xmlns="http://www.w3.org/2000/svg" viewBox="0 0 26 23" width="26" height="23">
	<style>
		tspan { white-space:pre }
		.shp0 { fill: #ebebeb } 
	</style>
	<path id="-e-footer__photo" class="shp0" d="M1.58,0.27h22.05c0.87,0 1.58,0.71 1.58,1.58v18.9c0,0.87 -0.71,1.58 -1.58,1.58h-22.05c-0.87,0 -1.58,-0.71 -1.58,-1.58v-18.9c0,-0.87 0.71,-1.58 1.58,-1.58zM2.37,4.2v14.18c0,0.87 0.71,1.58 1.58,1.58h17.33c0.87,0 1.58,-0.71 1.58,-1.58v-14.18c0,-0.87 -0.71,-1.58 -1.58,-1.58h-17.33c-0.87,0 -1.58,0.71 -1.58,1.58zM7.49,4.2c1.52,0 2.76,1.23 2.76,2.76c0,1.52 -1.23,2.76 -2.76,2.76c-1.52,0 -2.76,-1.23 -2.76,-2.76c0,-1.52 1.23,-2.76 2.76,-2.76zM3.15,18.38l4.73,-6.3l3.15,3.94h0.79l5.51,-11.03l4.73,13.39z" />
</svg>