<svg xmlns="http://www.w3.org/2000/svg" viewBox="0 0 20 31" width="20" height="31">
	<style>
		tspan { white-space:pre }
		.shp0 { fill: #ebebeb } 
	</style>
	<path id="-e-footer__iphone" class="shp0" d="M2.72,0.82h14.93c1.03,0 1.87,0.84 1.87,1.87v26.12c0,1.03 -0.84,1.87 -1.87,1.87h-14.93c-1.03,0 -1.87,-0.84 -1.87,-1.87v-26.12c0,-1.03 0.84,-1.87 1.87,-1.87zM5.52,3.16c0,0.26 0.21,0.47 0.47,0.47h8.4c0.26,0 0.47,-0.21 0.47,-0.47c0,-0.26 -0.21,-0.47 -0.47,-0.47h-8.4c-0.26,0 -0.47,0.21 -0.47,0.47zM2.72,26.95h14.93v-21.46h-14.93zM9.25,28.81c0,0.51 0.42,0.93 0.93,0.93c0.52,0 0.93,-0.42 0.93,-0.93c0,-0.52 -0.42,-0.93 -0.93,-0.93c-0.52,0 -0.93,0.42 -0.93,0.93z" />
</svg>