<svg xmlns="http://www.w3.org/2000/svg" viewBox="0 0 41 34" width="41" height="34">
	<style>
		tspan { white-space:pre }
		.shp0 { fill: #000000 } 
	</style>
	<path id="-e-project__laptop" class="shp0" d="M6.91,0.18h26.91c2.23,0 4.04,1.81 4.04,4.04v17.49c0,0.47 -0.08,0.92 -0.23,1.35h0.23v2.69l-4.04,0v-21.53h-26.91l0,21.53h-4.04v-2.69h0.23c-0.15,-0.42 -0.23,-0.87 -0.23,-1.35v-17.49c0,-2.23 1.81,-4.04 4.04,-4.04zM2.88,28.44h34.98c1.49,0 2.69,1.2 2.69,2.69c0,1.49 -2.55,2.69 -4.04,2.69h-32.29c-1.49,0 -4.04,-1.2 -4.04,-2.69c0,-1.49 1.2,-2.69 2.69,-2.69zM14.99,31.8c0,0.37 0.6,0.67 1.35,0.67h8.07c0.74,0 1.35,-0.3 1.35,-0.67c0,-0.37 -0.6,-0.67 -1.35,-0.67h-8.07c-0.74,0 -1.35,0.3 -1.35,0.67zM11.33,15.97l1.89,-1.9c0.52,-0.52 1.37,-0.52 1.89,0l2.48,2.49l8,-8.04c0.52,-0.53 1.37,-0.53 1.89,0l1.89,1.9c0.52,0.53 0.52,1.38 0,1.9l-10.42,10.46c-0.45,0.45 -1.13,0.51 -1.65,0.19c-0.44,0.1 -0.92,-0.01 -1.26,-0.36l-4.74,-4.76c-0.52,-0.53 -0.52,-1.38 0,-1.9z" />
</svg>