<svg xmlns="http://www.w3.org/2000/svg" viewBox="0 0 29 39" width="29" height="39">
	<style>
		tspan { white-space:pre }
		.shp0 { fill: #000000 } 
	</style>
	<path id="-e-project__locked" class="shp0" d="M14.97,0.77c5.15,0 9.33,3.66 9.33,8.17v9.33h1.17c1.93,0 3.5,1.57 3.5,3.5v12.83c0,1.93 -1.57,3.5 -3.5,3.5h-21c-1.93,0 -3.5,-1.57 -3.5,-3.5v-12.83c0,-1.93 1.57,-3.5 3.5,-3.5l1.17,0v-9.33c0,-4.51 4.18,-8.17 9.33,-8.17zM10.3,8.94v8.17c0,0.41 0.09,0.8 0.27,1.17h8.8c0.17,-0.36 0.27,-0.76 0.27,-1.17v-8.17c0,-1.93 -2.09,-3.5 -4.67,-3.5c-2.58,0 -4.67,1.57 -4.67,3.5zM12.63,32.27c0,1.29 1.04,2.33 2.33,2.33c1.29,0 2.33,-1.04 2.33,-2.33l0,-1.79c1.39,-0.81 2.33,-2.32 2.33,-4.04c0,-2.58 -2.09,-4.67 -4.67,-4.67c-2.58,0 -4.67,2.09 -4.67,4.67c0,1.73 0.94,3.24 2.33,4.04z" />
</svg>