<svg xmlns="http://www.w3.org/2000/svg" viewBox="0 0 15 12" width="15" height="12">
	<style>
		tspan { white-space:pre }
		.shp0 { fill: #7bc575 } 
	</style>
	<path id="-e-Arrow-Right" class="shp0" d="M14.4,5.46l-4.67,-4.68c-0.34,-0.34 -0.88,-0.34 -1.22,0c-0.34,0.34 -0.34,0.88 0,1.22l3.2,3.21h-10.67c-0.48,0 -0.86,0.39 -0.86,0.86c0,0.48 0.39,0.86 0.86,0.86h10.67l-3.2,3.21c-0.34,0.34 -0.34,0.88 0,1.22c0.17,0.17 0.39,0.25 0.61,0.25c0.22,0 0.44,-0.08 0.61,-0.25l4.67,-4.68c0.16,-0.16 0.25,-0.38 0.25,-0.61c0,-0.23 -0.09,-0.45 -0.25,-0.61z" />
</svg>