<svg xmlns="http://www.w3.org/2000/svg" viewBox="0 0 33 32" width="33" height="32">
	<style>
		tspan { white-space:pre }
		.shp0 { fill: #cbcbcb }
	</style>
	<g id="relax__checkmark">
		<path id="Circle-1" class="shp0" d="M0.97 15.7C0.97 24.36 8.01 31.4 16.67 31.4C25.32 31.4 32.37 24.36 32.37 15.7C32.37 7.05 25.32 0 16.67 0C8.01 0 0.97 7.05 0.97 15.7ZM2.22 15.7C2.22 7.74 8.7 1.26 16.67 1.26C24.63 1.26 31.11 7.74 31.11 15.7C31.11 23.67 24.63 30.15 16.67 30.15C8.7 30.15 2.22 23.67 2.22 15.7Z" />
		<path id="Checkmark-1" class="shp0" d="M15.07,21.38l9.32,-9.32c0.4,-0.4 0.4,-1.06 0,-1.46c-0.4,-0.4 -1.06,-0.4 -1.46,0l-8.59,8.59l-3.58,-3.58c-0.4,-0.4 -1.06,-0.4 -1.46,0c-0.4,0.4 -0.4,1.06 0,1.46l4.31,4.31c0.2,0.2 0.47,0.3 0.73,0.3c0.26,0 0.53,-0.1 0.73,-0.3z" />
	</g>
</svg>
