<svg xmlns="http://www.w3.org/2000/svg" viewBox="0 0 389 416" width="389" height="416">
	<style>
		tspan { white-space:pre }
		.shp0 { fill: #ffffff } 
	</style>
	<path id="-e-relax__gear" class="shp0" d="M362.3,249.51h-31.31c-3.02,11.41 -7.18,22.28 -12.46,32.43l21.95,23.51c10.14,10.86 10.14,28.46 0,39.31l-18.35,19.66c-10.14,10.86 -26.57,10.86 -36.71,0l-21.95,-23.51c-9.48,5.66 -19.63,10.11 -30.28,13.34v33.53c0,15.27 -11.56,27.65 -25.82,27.65h-25.82c-14.26,0 -25.82,-12.38 -25.82,-27.65v-33.53c-11.04,-3.35 -21.52,-8.05 -31.29,-14l-22.56,24.16c-10.14,10.86 -26.57,10.86 -36.71,0l-18.36,-19.66c-10.14,-10.86 -10.14,-28.46 0,-39.31l22.96,-24.59c-5.02,-9.83 -8.94,-20.36 -11.85,-31.35h-31.31c-14.26,0 -25.82,-12.38 -25.82,-27.65v-27.65c0,-15.27 11.56,-27.65 25.82,-27.65h31.31c3.02,-11.41 7.18,-22.28 12.46,-32.43l-23.57,-25.24c-10.14,-10.86 -10.14,-28.46 0,-39.31l18.36,-19.66c10.14,-10.86 26.57,-10.86 36.71,0l23.57,25.24c9.48,-5.66 19.63,-10.11 30.28,-13.34v-33.53c0,-15.27 11.56,-27.65 25.82,-27.65h25.82c14.26,0 25.82,12.38 25.82,27.65v33.53c10.26,3.11 20.1,7.31 29.28,12.69l22.96,-24.59c10.14,-10.86 26.57,-10.86 36.71,0l18.35,19.66c10.14,10.86 10.14,28.46 0,39.31l-22.56,24.16c5.55,10.46 9.94,21.69 13.07,33.51h31.31c14.26,0 25.82,12.38 25.82,27.65v27.65c0,15.27 -11.56,27.65 -25.82,27.65zM116.99,208.03c0,45.82 34.68,82.96 77.47,82.96c42.78,0 77.47,-37.14 77.47,-82.96c0,-45.82 -34.68,-82.96 -77.47,-82.96c-42.78,0 -77.47,37.14 -77.47,82.96zM194.46,166.55c21.39,0 38.73,18.57 38.73,41.48c0,22.91 -17.34,41.48 -38.73,41.48c-21.39,0 -38.73,-18.57 -38.73,-41.48c0,-22.91 17.34,-41.48 38.73,-41.48z" />
</svg>