<svg xmlns="http://www.w3.org/2000/svg" viewBox="0 0 54 48" width="54" height="48">
	<style>
		tspan { white-space:pre }
		.shp0 { fill: #000000 } 
	</style>
	<path id="-e-services__heart" class="shp0" d="M51.73 9.78C49.28 4.28 44.06 0.72 38.45 0.72C32.76 0.72 29.1 3.25 26.99 5.95C24.87 3.25 21.21 0.72 15.52 0.72C9.91 0.72 4.69 4.28 2.24 9.78C-0.3 15.46 0.82 21.79 5.23 26.71C15.92 38.61 25.36 47.05 25.46 47.14C25.89 47.53 26.44 47.72 26.99 47.72C27.53 47.72 28.08 47.53 28.52 47.14C28.61 47.05 38.05 38.61 48.74 26.71C53.15 21.79 54.27 15.46 51.73 9.78ZM45.32 23.64C37.32 32.55 30.05 39.47 26.99 42.31C23.92 39.47 16.65 32.55 8.65 23.64C5.44 20.06 4.63 15.69 6.43 11.65C8.13 7.86 11.78 5.32 15.52 5.32C22.93 5.32 24.59 10.82 24.75 11.43C25 12.45 25.93 13.18 26.99 13.18C28.04 13.18 28.97 12.45 29.22 11.43C29.28 11.18 30.8 5.32 38.45 5.32C42.19 5.32 45.85 7.86 47.54 11.65C49.34 15.69 48.53 20.06 45.32 23.64ZM38.42 7.82C37.16 7.64 36.01 8.53 35.84 9.78C35.66 11.04 36.55 12.2 37.8 12.37C37.92 12.39 40.75 12.82 41.02 16.86C41.1 18.07 42.11 19 43.31 19C43.36 19 43.41 19 43.47 19C44.73 18.92 45.69 17.82 45.61 16.56C45.2 10.36 40.73 8.13 38.42 7.82ZM40.53 20C39.93 20 39.34 20.24 38.9 20.67C38.48 21.09 38.23 21.68 38.23 22.29C38.23 22.9 38.48 23.49 38.9 23.92C39.34 24.34 39.93 24.59 40.53 24.59C41.13 24.59 41.73 24.34 42.16 23.92C42.58 23.49 42.83 22.9 42.83 22.29C42.83 21.68 42.58 21.09 42.16 20.67C41.73 20.24 41.13 20 40.53 20Z" />
</svg>