<svg xmlns="http://www.w3.org/2000/svg" viewBox="0 0 55 44" width="55" height="44">
	<style>
		tspan { white-space:pre }
		.shp0 { fill: #000000 } 
	</style>
	<path id="-e-services__graph" class="shp0" d="M6.24,41.75l4.79,-7.92l2.95,4.01c0.63,0.85 1.65,1.34 2.69,1.28c1.06,-0.05 2.01,-0.63 2.56,-1.53l6.46,-10.81l5.54,7.31c0.63,0.83 1.64,1.3 2.67,1.24c1.04,-0.05 1.99,-0.62 2.53,-1.51l17.29,-28.3c0.91,-1.49 0.44,-3.43 -1.05,-4.34c-1.49,-0.91 -3.43,-0.44 -4.34,1.05l-14.88,24.35l-5.57,-7.35c-0.63,-0.84 -1.63,-1.3 -2.69,-1.24c-1.05,0.06 -2,0.63 -2.54,1.53l-6.43,10.75l-2.94,-3.98c-0.63,-0.85 -1.64,-1.33 -2.68,-1.28c-1.05,0.05 -2.01,0.62 -2.56,1.52l-7.24,11.95c-0.9,1.49 -0.43,3.43 1.07,4.33c0.51,0.31 1.07,0.46 1.63,0.46c1.07,0 2.11,-0.54 2.7,-1.52z" />
</svg>