<svg xmlns="http://www.w3.org/2000/svg" viewBox="0 0 40 52" width="40" height="52">
	<style>
		tspan { white-space:pre }
		.shp0 { fill: #000000 } 
	</style>
	<path id="-e-services__mobile" class="shp0" d="M35.15 0.73L4.67 0.73C2.06 0.73 0.37 2.34 0.37 4.84L0.37 47.28C0.37 49.78 2.06 51.39 4.67 51.39L35.15 51.39C37.77 51.39 39.46 49.78 39.46 47.28L39.46 4.84C39.46 2.34 37.77 0.73 35.15 0.73ZM36.17 47.28C36.17 47.74 36.17 48.1 35.15 48.1L4.67 48.1C3.66 48.1 3.66 47.74 3.66 47.28L3.66 4.84C3.66 4.38 3.66 4.02 4.67 4.02L35.15 4.02C36.17 4.02 36.17 4.38 36.17 4.84L36.17 47.28ZM32.96 6.66L6.87 6.66C6.26 6.66 5.77 7.16 5.77 7.76L5.77 40.88C5.77 41.49 6.26 41.98 6.87 41.98L32.96 41.98C33.57 41.98 34.06 41.49 34.06 40.88L34.06 7.76C34.06 7.16 33.57 6.66 32.96 6.66ZM31.87 39.79L7.96 39.79L7.96 8.86L31.87 8.86L31.87 39.79ZM18.56 43.74C18.2 44.1 18 44.59 18 45.1C18 45.61 18.2 46.1 18.56 46.46C18.91 46.81 19.41 47.02 19.92 47.02C20.42 47.02 20.91 46.81 21.27 46.46C21.62 46.1 21.83 45.61 21.83 45.1C21.83 44.6 21.62 44.1 21.27 43.74C20.56 43.03 19.27 43.03 18.56 43.74Z" />
</svg>