<svg xmlns="http://www.w3.org/2000/svg" viewBox="0 0 162 208" width="162" height="208">
	<style>
		tspan { white-space:pre }
		.shp0 { fill: #fff }
	</style>
	<g id="Page 1">
		<path id="Path 1" class="shp0" d="M94.57,150.77c46.8,3.62 72.94,-46.7 66.55,-93.17c-5.67,-41.17 -46.74,-62.13 -90.51,-57.23c-34.6,3.88 -69.1,31.88 -70.54,71.87c-0.9,24.44 6.04,42.77 29.28,47.92c10.08,-17.8 -3.25,-21.71 -5.32,-34.61c-8.53,-52.75 60.85,-88.75 97.16,-51.91c25.13,25.52 8.59,103.98 -31.94,95.83c-38.81,-7.8 19.01,-70.26 -11.98,-82.52c-25.18,-9.97 -38.56,30.48 -26.62,50.58c-7,34.57 -22.08,67.12 -15.98,110.47c19.79,-14.36 26.47,-41.86 31.95,-70.54c9.94,6.04 15.27,12.32 27.95,13.31z" />
	</g>
</svg>
