<svg xmlns="http://www.w3.org/2000/svg" viewBox="0 0 187 183" width="187" height="183">
	<style>
		tspan { white-space:pre }
		.shp0 { fill: #fff }
	</style>
	<g id="Page 1">
		<path id="Path 1" class="shp0" d="M155.44 71.35L155.44 40.1L135.64 40.1L135.64 71.35L104.39 71.35L104.39 91.15L135.64 91.15L135.64 122.4L155.44 122.4L155.44 91.15L186.69 91.15L186.69 71.35L155.44 71.35ZM74.72 35.36C79.42 51.88 72.33 69.17 61.02 72.35C59.72 72.72 58.37 72.9 57.02 72.9C46.66 72.9 36.39 62.42 32.59 47.99C30.47 39.88 30.64 32.79 33.07 25.97C35.47 19.26 39.77 14.74 45.19 13.21C46.49 12.84 47.84 12.66 49.19 12.66C61.7 12.66 69.74 17.84 74.72 35.36ZM87.23 139.26C88.15 153.92 75.62 164.73 56.8 166.1C37.69 167.49 21.95 158.89 21.04 144.25C20.59 137.23 23.69 130.33 29.74 124.85C35.88 119.29 44.3 115.86 53.47 115.18C54.55 115.11 55.63 115.07 56.7 115.07C74.39 115.07 86.37 125.47 87.23 139.26ZM9.9 45.38C9.9 60.94 15.1 72.17 25.35 78.77C33.73 84.18 43.47 84.98 48.53 84.98C49.76 84.98 50.74 84.94 51.43 84.89C51.43 84.89 49.83 95.34 57.58 105.69L57.23 105.68C43.8 105.68 0 108.49 0 144.49C0 181.13 40.23 182.99 48.29 182.99C48.93 182.99 49.3 182.98 49.3 182.98C49.39 182.98 49.96 183 50.94 183C56.12 183 69.51 182.35 81.94 176.31C98.07 168.48 106.25 154.86 106.25 135.84C106.25 117.45 93.79 106.51 84.69 98.51C79.13 93.64 74.34 89.43 74.34 85.34C74.34 81.17 77.84 78.04 82.27 74.07C89.45 67.65 96.21 58.52 96.21 41.25C96.21 26.07 94.24 15.88 82.12 9.41C83.38 8.76 87.85 8.29 90.06 7.99C96.63 7.09 106.25 6.07 106.25 0.7L106.25 -0.33L58.34 -0.33C57.87 -0.32 9.9 1.46 9.9 45.38Z" />
	</g>
</svg>
