<svg xmlns="http://www.w3.org/2000/svg" viewBox="0 0 192 156" width="192" height="156">
	<style>
		tspan { white-space:pre }
		.shp0 { fill: #fff }
	</style>
	<g id="Page 1">
		<path id="Path 1" class="shp0" d="M191.67,18.67c-7.06,3.13 -14.63,5.24 -22.59,6.19c8.12,-4.87 14.36,-12.57 17.29,-21.76c-7.6,4.5 -16.02,7.78 -24.97,9.54c-7.18,-7.64 -17.4,-12.42 -28.7,-12.42c-21.72,0 -39.32,17.61 -39.32,39.32c0,3.08 0.35,6.08 1.02,8.96c-32.68,-1.64 -61.66,-17.29 -81.05,-41.09c-3.39,5.81 -5.32,12.56 -5.32,19.77c0,13.64 6.94,25.67 17.49,32.73c-6.44,-0.2 -12.51,-1.97 -17.81,-4.92c0,0.16 0,0.33 0,0.49c0,19.05 13.56,34.95 31.54,38.56c-3.3,0.9 -6.77,1.38 -10.36,1.38c-2.53,0 -4.99,-0.25 -7.4,-0.71c5,15.62 19.53,26.99 36.73,27.31c-13.46,10.55 -30.41,16.84 -48.84,16.84c-3.17,0 -6.3,-0.19 -9.38,-0.55c17.4,11.16 38.06,17.67 60.28,17.67c72.32,0 111.88,-59.92 111.88,-111.89c0,-1.7 -0.04,-3.4 -0.11,-5.09c7.68,-5.54 14.35,-12.47 19.62,-20.35z" />
	</g>
</svg>
